<svg id="Capa_1" enable-background="new 0 0 512 512" height="512" viewBox="0 0 512 512" width="512" xmlns="http://www.w3.org/2000/svg"><g><path d="m143.03 441.187c-7.706-3.042-16.418.739-19.46 8.445l-16.523 41.857c-3.042 7.706.739 16.418 8.445 19.46 7.706 3.042 16.418-.739 19.46-8.445l16.523-41.857c3.042-7.706-.739-16.419-8.445-19.46z"/><path d="m68.03 441.187c-7.706-3.042-16.418.739-19.46 8.445l-16.523 41.857c-3.042 7.706.739 16.418 8.445 19.46 7.706 3.042 16.418-.739 19.46-8.445l16.523-41.857c3.042-7.706-.739-16.419-8.445-19.46z"/><path d="m218.03 441.187c-7.706-3.042-16.418.739-19.46 8.445l-16.523 41.857c-3.042 7.706.739 16.418 8.445 19.46 7.706 3.042 16.418-.739 19.46-8.445l16.523-41.857c3.042-7.706-.739-16.419-8.445-19.46z"/><path d="m293.03 441.187c-7.706-3.042-16.418.739-19.46 8.445l-16.523 41.857c-3.042 7.706.739 16.418 8.445 19.46 7.706 3.042 16.418-.739 19.46-8.445l16.523-41.857c3.042-7.706-.739-16.419-8.445-19.46z"/><path d="m368.03 441.187c-7.706-3.042-16.418.739-19.46 8.445l-16.523 41.857c-3.042 7.706.739 16.418 8.445 19.46 7.706 3.042 16.418-.739 19.46-8.445l16.523-41.857c3.042-7.706-.739-16.419-8.445-19.46z"/><path d="m512 255c0-53.01-39.489-96.971-90.593-104.015-7.179-84.447-78.623-150.985-165.407-150.985-86.217 0-157.201 66.466-164.399 150.851-51.595 6.599-91.601 50.789-91.601 104.149 0 50.964 36.499 93.557 84.729 103.029l-9.204 23.316c-3.042 7.706.739 16.418 8.445 19.46 7.706 3.042 16.418-.739 19.46-8.445l12.774-32.36h42.747l-8.426 21.345c-3.042 7.706.739 16.418 8.445 19.46 7.706 3.042 16.418-.739 19.46-8.445l12.774-32.36h42.747l-8.426 21.345c-3.042 7.706.739 16.418 8.445 19.46 7.706 3.042 16.418-.739 19.46-8.445l12.774-32.36h42.747l-8.426 21.345c-3.042 7.706.739 16.418 8.445 19.46 7.706 3.042 16.418-.739 19.46-8.445l12.774-32.36h42.747l-8.426 21.345c-3.042 7.706.739 16.418 8.445 19.46 7.706 3.042 16.418-.739 19.46-8.445l12.941-32.783c53.523-4.757 95.629-49.838 95.629-104.577z"/></g></svg>