<svg id="Capa_1" enable-background="new 0 0 512 512" height="512" viewBox="0 0 512 512" width="512" xmlns="http://www.w3.org/2000/svg"><g><g><g><g><g><path d="m471 90h-30c-8.284 0-15-6.716-15-15s6.716-15 15-15h30c8.284 0 15 6.716 15 15s-6.716 15-15 15z"/><path d="m456 150h-15c-8.284 0-15-6.716-15-15s6.716-15 15-15h15c8.284 0 15 6.716 15 15s-6.716 15-15 15z"/><path d="m471 210h-30c-8.284 0-15-6.716-15-15s6.716-15 15-15h30c8.284 0 15 6.716 15 15s-6.716 15-15 15z"/><path d="m456 270h-15c-8.284 0-15-6.716-15-15s6.716-15 15-15h15c8.284 0 15 6.716 15 15s-6.716 15-15 15z"/><path d="m471 330h-30c-8.284 0-15-6.716-15-15s6.716-15 15-15h30c8.284 0 15 6.716 15 15s-6.716 15-15 15z"/></g></g></g><g><path d="m96 255v-143.787l14.393 14.393c5.858 5.858 15.355 5.858 21.213 0 5.858-5.858 5.858-15.355 0-21.213l-40-40c-5.858-5.858-15.355-5.858-21.213 0l-40 40c-5.858 5.858-5.858 15.355 0 21.213 5.858 5.858 15.355 5.858 21.213 0l14.394-14.393v143.787c0 8.284 6.716 15 15 15s15-6.716 15-15z"/><path d="m191.607 324.393c-5.858-5.858-15.355-5.858-21.213 0l-14.394 14.394v-143.787c0-8.284-6.716-15-15-15s-15 6.716-15 15v143.787l-14.393-14.393c-5.858-5.858-15.355-5.858-21.213 0-5.858 5.858-5.858 15.355 0 21.213l40 40c5.858 5.858 15.355 5.858 21.213 0l40-40c5.857-5.858 5.857-15.356 0-21.214z"/></g></g><g><circle cx="321" cy="407" r="15"/><path d="m386 324.535v-259.535c0-35.898-29.102-65-65-65-35.898 0-65 29.101-65 65v259.536c-24.362 19.229-40 49.02-40 82.465 0 57.99 47.01 105 105 105s105-47.01 105-105c0-33.446-15.638-63.237-40-82.466zm-65 127.465c-24.813 0-45-20.187-45-45 0-19.555 12.541-36.228 30-42.42v-169.58c0-8.284 6.716-15 15-15s15 6.716 15 15v169.58c17.459 6.192 30 22.865 30 42.42 0 24.813-20.187 45-45 45z"/></g></g></svg>